<svg width="233" height="87" viewBox="0 0 233 87" fill="none" xmlns="http://www.w3.org/2000/svg">
<path fill-rule="evenodd" clip-rule="evenodd" d="M62.8986 50.4188C63.2809 53.0274 63.0877 53.555 62.0736 57.1102C61.4798 56.8412 61.3554 56.229 60.7875 56.0422C60.4031 56.6073 60.333 56.8058 59.9457 57.1502C59.5505 57.6011 59.5176 57.6098 59.1733 57.8892C59.4216 55.5355 60.3042 55.1535 60.8697 53.0883L61.8074 54.2948L62.8986 50.4184V50.4188ZM128.004 21.2655L121.533 46.0746H114.212L110.252 29.7472L106.149 46.0746H98.829L92.5339 21.2655H99.0055L102.577 39.3248L106.998 21.2655H113.646L117.89 39.3248L121.497 21.2655H128.004H128.004ZM149.647 35.8964C149.647 36.4619 149.612 37.0512 149.541 37.6634H135.856C135.95 38.8886 136.345 39.8249 137.04 40.473C137.736 41.121 138.591 41.4451 139.604 41.4451C141.113 41.4451 142.162 40.8091 142.752 39.5367H149.188C148.858 40.8324 148.263 41.9989 147.402 43.0356C146.542 44.0724 145.463 44.8852 144.166 45.474C142.87 46.0629 141.42 46.3573 139.817 46.3573C137.883 46.3573 136.162 45.9453 134.654 45.1204C133.145 44.2959 131.966 43.1178 131.118 41.5864C130.269 40.0551 129.845 38.2643 129.845 36.2146C129.845 34.1649 130.263 32.3741 131.1 30.8427C131.937 29.3114 133.11 28.1333 134.619 27.3088C136.128 26.4843 137.86 26.0719 139.817 26.0719C141.727 26.0719 143.424 26.4722 144.91 27.2733C146.395 28.0745 147.556 29.2171 148.393 30.7014C149.23 32.1856 149.649 33.9171 149.649 35.8964H149.647ZM143.459 34.3062C143.459 33.2695 143.105 32.445 142.397 31.8324C141.69 31.2198 140.806 30.9136 139.745 30.9136C138.731 30.9136 137.877 31.2081 137.181 31.7973C136.485 32.3862 136.055 33.2228 135.89 34.3062H143.458H143.459ZM158.877 29.1467C159.443 28.2279 160.257 27.4856 161.317 26.9205C162.378 26.355 163.593 26.0723 164.96 26.0723C166.587 26.0723 168.06 26.4843 169.381 27.3092C170.701 28.1337 171.744 29.3118 172.51 30.8432C173.277 32.3745 173.66 34.1532 173.66 36.1796C173.66 38.2059 173.277 39.9904 172.51 41.5339C171.744 43.0769 170.701 44.2667 169.381 45.1033C168.06 45.9399 166.587 46.3577 164.96 46.3577C163.569 46.3577 162.355 46.0808 161.317 45.527C160.28 44.9732 159.467 44.2371 158.877 43.3184V46.075H152.83V19.9231H158.877V29.1471V29.1467ZM167.506 36.1796C167.506 34.6716 167.088 33.488 166.25 32.6281C165.414 31.7682 164.382 31.3382 163.156 31.3382C161.954 31.3382 160.934 31.774 160.097 32.6456C159.26 33.5172 158.842 34.707 158.842 36.215C158.842 37.723 159.26 38.9128 160.097 39.7844C160.934 40.656 161.954 41.0918 163.156 41.0918C164.358 41.0918 165.384 40.6502 166.233 39.7665C167.082 38.8828 167.506 37.6871 167.506 36.1791V36.1796ZM93.1711 64.4667C93.1711 62.0638 93.7132 59.9018 94.7978 57.9818C95.8824 56.0618 97.3617 54.5596 99.2359 53.4757C101.11 52.3918 103.191 51.8501 105.478 51.8501C108.165 51.8501 110.511 52.4982 112.515 53.7939C114.519 55.0897 115.981 56.9275 116.9 59.3067H113.046C112.362 57.8225 111.378 56.6798 110.093 55.8787C108.808 55.0776 107.27 54.6772 105.478 54.6772C103.757 54.6772 102.213 55.0776 100.845 55.8787C99.4775 56.6798 98.405 57.8162 97.6272 59.2888C96.8489 60.7613 96.4599 62.487 96.4599 64.4663C96.4599 66.4218 96.8489 68.1358 97.6272 69.6084C98.405 71.0809 99.4779 72.2178 100.845 73.0189C102.213 73.82 103.757 74.2204 105.478 74.2204C107.27 74.2204 108.808 73.8258 110.093 73.0364C111.378 72.2469 112.362 71.1101 113.046 69.6259H116.9C115.981 71.9821 114.519 73.8021 112.515 75.0861C110.511 76.3702 108.165 77.012 105.478 77.012C103.191 77.012 101.11 76.4761 99.2359 75.4039C97.3617 74.3321 95.882 72.8416 94.7978 70.9333C93.7132 69.0249 93.1711 66.8693 93.1711 64.4659V64.4667ZM124.893 60.5795C125.458 59.4723 126.266 58.6124 127.315 57.9997C128.364 57.3871 129.643 57.081 131.152 57.081V60.4031H130.303C126.696 60.4031 124.893 62.3586 124.893 66.2696V76.801H121.675V57.4342H124.893V60.5795ZM133.663 67.0469C133.663 65.0677 134.063 63.3303 134.865 61.834C135.667 60.3381 136.769 59.1774 138.171 58.353C139.574 57.5285 141.136 57.116 142.857 57.116C144.554 57.116 146.028 57.4814 147.277 58.2116C148.527 58.9418 149.458 59.8605 150.071 60.9682V57.4342H153.325V76.801H150.071V73.1961C149.435 74.3271 148.486 75.2634 147.224 76.0057C145.963 76.7476 144.496 77.1188 142.822 77.1188C141.101 77.1188 139.545 76.6946 138.154 75.8468C136.763 74.9986 135.667 73.8087 134.865 72.2774C134.063 70.746 133.663 69.0024 133.663 67.0469ZM150.072 67.0824C150.072 65.6219 149.777 64.3495 149.188 63.2657C148.598 62.1818 147.803 61.3515 146.801 60.7739C145.799 60.1967 144.697 59.9081 143.495 59.9081C142.292 59.9081 141.196 60.1908 140.206 60.7563C139.215 61.3218 138.426 62.1463 137.836 63.2302C137.247 64.3141 136.952 65.586 136.952 67.0469C136.952 68.5312 137.247 69.821 137.836 70.9166C138.425 72.0122 139.215 72.8487 140.206 73.4259C141.196 74.0031 142.292 74.2917 143.495 74.2917C144.697 74.2917 145.799 74.0031 146.801 73.4259C147.803 72.8487 148.599 72.0122 149.188 70.9166C149.777 69.821 150.072 68.5428 150.072 67.0819V67.0824ZM166.657 60.0849H162.591V76.801H159.372V60.0849H156.862V57.4342H159.372V56.0559C159.372 53.8886 159.932 52.3039 161.052 51.3025C162.172 50.3012 163.969 49.8004 166.445 49.8004V52.4865C165.03 52.4865 164.034 52.7634 163.457 53.3168C162.879 53.8707 162.59 54.7836 162.59 56.0559V57.4342H166.657V60.0849H166.657ZM174.331 60.0849V71.5C174.331 72.4425 174.532 73.1081 174.932 73.4968C175.333 73.8855 176.028 74.0798 177.019 74.0798H179.388V76.801H176.488C174.696 76.801 173.353 76.3889 172.457 75.564C171.561 74.7396 171.113 73.3846 171.113 71.4996V60.0845H168.602V57.4338H171.113V52.557H174.331V57.4338H179.388V60.0845H174.331L174.331 60.0849ZM184.304 77.0128C183.691 77.0128 183.172 76.801 182.748 76.3769C182.323 75.9527 182.111 75.4344 182.111 74.8221C182.111 74.2095 182.323 73.6911 182.748 73.267C183.172 72.8429 183.691 72.631 184.304 72.631C184.893 72.631 185.394 72.8429 185.807 73.267C186.219 73.6911 186.426 74.2095 186.426 74.8221C186.426 75.4348 186.219 75.9531 185.807 76.3769C185.395 76.801 184.893 77.0128 184.304 77.0128ZM198.697 57.116C200.371 57.116 201.838 57.4814 203.099 58.2116C204.361 58.9418 205.298 59.8605 205.911 60.9682V57.4342H209.164V77.2251C209.164 78.9921 208.787 80.5647 208.032 81.943C207.278 83.3213 206.199 84.3994 204.797 85.1767C203.394 85.9545 201.761 86.3432 199.899 86.3432C197.353 86.3432 195.231 85.7422 193.533 84.5408C191.835 83.3393 190.833 81.7016 190.527 79.6285H193.71C194.064 80.8066 194.794 81.755 195.902 82.4735C197.01 83.1921 198.342 83.5511 199.899 83.5511C201.667 83.5511 203.111 82.9973 204.231 81.8901C205.351 80.7828 205.91 79.2277 205.91 77.2251V73.1607C205.274 74.2917 204.331 75.2342 203.081 75.9878C201.832 76.7418 200.37 77.1188 198.696 77.1188C196.975 77.1188 195.413 76.6946 194.011 75.8468C192.608 74.9986 191.506 73.8087 190.704 72.2774C189.903 70.746 189.502 69.0024 189.502 67.0469C189.502 65.0677 189.903 63.3303 190.704 61.834C191.506 60.3381 192.608 59.1774 194.011 58.353C195.413 57.5285 196.975 57.116 198.696 57.116H198.697ZM205.911 67.0819C205.911 65.6215 205.617 64.3491 205.027 63.2652C204.438 62.1814 203.642 61.351 202.64 60.7734C201.638 60.1963 200.536 59.9077 199.334 59.9077C198.132 59.9077 197.035 60.1904 196.045 60.7559C195.055 61.3214 194.265 62.1459 193.676 63.2298C193.086 64.3137 192.791 65.5856 192.791 67.0465C192.791 68.5307 193.086 69.8206 193.676 70.9162C194.265 72.0117 195.055 72.8483 196.045 73.4255C197.035 74.0027 198.132 74.2913 199.334 74.2913C200.536 74.2913 201.639 74.0027 202.64 73.4255C203.642 72.8483 204.438 72.0117 205.027 70.9162C205.617 69.8206 205.911 68.5424 205.911 67.0815V67.0819ZM223.063 77.1188C221.247 77.1188 219.603 76.7067 218.13 75.8818C216.656 75.0574 215.501 73.8851 214.664 72.3654C213.827 70.8457 213.408 69.0846 213.408 67.0819C213.408 65.1027 213.838 63.3536 214.699 61.834C215.559 60.3143 216.732 59.1483 218.218 58.3354C219.703 57.5226 221.365 57.116 223.204 57.116C225.043 57.116 226.705 57.5222 228.191 58.3354C229.676 59.1483 230.849 60.3084 231.709 61.8165C232.57 63.3245 233 65.0798 233 67.0824C233 69.085 232.558 70.8461 231.674 72.3658C230.79 73.8855 229.593 75.0574 228.085 75.8822C226.576 76.7067 224.902 77.1192 223.063 77.1192V77.1188ZM223.063 74.2917C224.218 74.2917 225.302 74.0206 226.316 73.4789C227.33 72.9371 228.149 72.1239 228.774 71.0405C229.399 69.9566 229.711 68.6371 229.711 67.0824C229.711 65.5277 229.405 64.2082 228.792 63.1243C228.179 62.0404 227.377 61.2334 226.387 60.7034C225.397 60.1733 224.325 59.9081 223.169 59.9081C221.99 59.9081 220.912 60.1733 219.933 60.7034C218.955 61.2334 218.171 62.0404 217.582 63.1243C216.992 64.2082 216.697 65.5277 216.697 67.0824C216.697 68.6609 216.986 69.992 217.564 71.0759C218.142 72.1598 218.914 72.9668 219.88 73.4968C220.847 74.0269 221.908 74.2921 223.063 74.2921L223.063 74.2917ZM0 77.394C1.05705 80.9584 4.55369 82.5131 9.17039 81.4076L6.99745 75.6454C5.19134 77.291 3.18449 77.977 0 77.394ZM12.8348 59.6495C10.9786 64.184 12.3803 64.5726 10.459 69.9078L11.2882 69.0412C18.4171 62.4912 17.3025 52.738 18.6859 49.4221C19.4408 47.6134 21.5061 45.6138 22.2222 43.9168C19.4199 44.7809 16.5568 47.9329 15.0194 49.9647C12.8444 52.8393 11.0729 56.2332 11.4585 61.4782C11.471 61.492 11.7414 60.7096 12.8344 59.6495H12.8348ZM61.3166 35.9869C62.7955 36.3597 63.2575 36.6421 64.0362 37.4519C64.6688 37.0466 64.7498 36.572 65.5686 36.7855C67.7227 38.9791 69.3603 39.8532 70.3751 44.3063L71.6146 44.7255C71.2636 50.6741 70.8626 51.6103 70.3647 52.2638C70.4753 46.8278 70.5329 47.3236 69.3615 47.8787L69.3644 45.469C68.7501 41.4972 66.8339 40.7036 65.5661 38.452L64.9297 39.1664C64.5512 39.5817 64.7903 39.3436 64.2424 39.8841C63.669 38.3627 62.382 37.2201 61.0545 36.3259L60.2003 35.5461C60.5604 35.6382 60.7253 35.7425 61.3166 35.9865V35.9869ZM71.8286 20.8944L69.6903 24.0914C68.8023 25.1285 68.0065 25.7303 67.3743 26.7178C65.6938 27.5394 65.5719 28.5595 66.2822 25.85C64.923 25.546 64.431 26.9485 63.2688 27.1824C63.8872 26.2145 63.1461 26.2762 63.2809 25.8517C62.3373 25.9722 61.9972 26.6303 61.2369 27.1182C61.8278 23.3699 62.9904 24.2073 66.4307 23.3757C68.4993 22.7589 73.2283 19.0148 71.8282 20.8944H71.8286ZM63.5087 15.8415C62.8615 23.2748 58.2477 24.968 56.7992 23.3399C55.3349 21.6942 62.3411 16.1868 63.5087 15.8415ZM79.5601 17.0772C79.2918 17.8817 79.1019 17.792 78.7597 19.4606C78.4964 18.7078 78.4188 17.8959 78.5406 17.0205C77.7148 17.8813 76.9703 18.7324 75.3023 19.144C74.0391 19.5169 72.9278 19.8267 74.4293 18.6711C76.4854 16.9187 76.3339 15.8261 77.5324 14.9637C78.8674 13.9761 79.3319 12.9452 81.6321 12.7993C82.619 13.924 80.275 14.8915 79.5597 17.0776L79.5601 17.0772ZM69.8869 8.31821C69.4988 8.63849 69.9386 9.52427 68.39 9.39332C68.801 8.55383 68.8653 8.53256 69.8869 8.31821ZM78.496 9.30908L77.7515 9.48257C76.9524 9.91295 77.1619 9.81703 76.369 9.93631L77.0392 9.13685C79.6261 7.1601 77.6272 6.10041 79.8493 4.37096C80.961 5.88438 80.8993 7.22515 80.4586 8.67894C80.088 8.71105 79.6027 8.70313 79.2709 8.85702C79.1687 8.90456 79.1128 8.95919 79.1128 8.95919C78.2177 6.86859 78.8215 9.1577 78.4964 9.3095L78.496 9.30908ZM78.7051 1.312C78.1551 2.02888 77.6489 1.76114 78.4989 0.935412C79.152 0.3011 79.1228 0.768181 78.7051 1.312ZM59.0101 24.9588L60.222 24.5822L59.5823 25.2995C58.7614 28.2684 58.3082 27.8092 52.7855 30.6797C47.3734 33.493 49.6737 33.9643 45.2481 35.3238C39.1545 37.1959 32.5168 39.2627 26.5993 41.4171C23.568 42.5206 23.6502 43.4727 20.8926 47.8612C19.1812 50.5844 19.7555 54.6255 18.8353 58.418C16.1374 69.5358 8.94337 71.7461 8.59825 72.8154C8.83153 75.8718 11.0888 80.7232 12.1446 83.8347C12.9529 86.2164 13.8643 86.8899 16.8848 86.8157C19.3678 86.7548 21.9597 86.7306 23.477 85.7347C23.6243 78.7219 14.8508 85.5312 16.1228 77.0821C16.8368 72.3387 24.2958 70.0738 29.1574 71.1935C29.2806 65.6978 36.3068 60.9173 35.3975 51.0152C35.9663 51.0031 36.2342 51.1837 36.9036 51.5866C36.5305 49.204 36.4057 46.8482 35.8874 45.4294L36.7266 46.7781C37.8033 50.0268 38.4347 51.8418 38.0065 55.7352C37.4281 54.7127 37.3396 54.598 36.616 54.4491L36.3602 56.5822L35.1997 61.0983L39.8735 60.9728C38.872 61.4907 38.784 61.7952 38.5599 62.4566C41.7564 62.7502 44.7519 63.4375 47.9581 63.1518L47.3935 64.4279C51.0341 63.8683 52.9328 62.5133 55.9133 61.5133C55.9028 57.6011 55.4726 54.9408 53.9945 51.5732C54.8616 52.6742 55.1571 53.08 55.5778 53.9395C56.4587 57.0526 60.7741 67.3422 56.8455 75.2208C56.9081 75.2738 56.6769 75.7672 56.7003 75.8631C57.5504 75.5945 57.7386 75.2413 58.0449 76.1704C58.0628 76.9836 57.8938 76.6992 58.8657 76.6717C61.2594 77.1054 61.2265 81.3483 63.424 82.9435C65.2452 84.2659 71.2419 83.6028 73.0902 82.8768C73.3564 80.6736 71.9826 79.7332 71.1301 78.6355C68.0482 78.8828 67.406 79.505 65.7939 76.7889C62.3774 71.0317 67.9397 63.8679 69.8159 58.2495C70.1569 57.7566 70.2621 56.9755 70.7432 58.4693C71.337 59.4502 71.3971 61.0662 72.4316 61.7627L72.5531 58.77C72.5798 56.5831 73.2959 54.887 74.8061 52.2984C75.6867 53.2263 75.1354 55.5184 76.3832 56.6565C76.3556 54.7823 79.9257 50.5043 78.2222 43.0932C77.9752 42.3605 77.9477 42.3947 77.7565 42.0877L78.5565 42.7154C79.3419 43.5774 78.8303 44.1195 80.2187 44.8072C79.7179 42.4151 80.3676 39.6355 79.1391 34.9802C79.0731 32.0054 80.7211 29.5366 80.9694 26.6269C81.2582 23.2348 79.5919 19.8676 80.3384 17.1635C81.2945 13.7013 83.3059 15.4162 83.3656 9.51093C83.3764 9.38123 82.9145 9.09765 82.5276 8.97379C82.1166 8.80989 81.7385 8.70647 81.3976 8.67352C81.5136 6.39817 82.0189 3.99604 80.742 2.44675C80.1431 1.98801 80.3877 2.76036 79.9086 1.77991C80.101 1.34536 80.6184 1.83955 80.6385 1.36663C79.5522 0.113851 79.3385 0.0183496 77.3363 0L72.5118 6.37273C71.0036 7.65095 70.2992 7.06251 68.4739 7.81651C67.0592 8.40078 66.5618 9.63145 65.4075 10.599C64.3926 11.4497 55.4922 21.4357 54.9906 22.9266C55.8269 24.3745 56.8113 25.116 59.011 24.9592L59.0101 24.9588Z" fill="url(#paint0_linear_64_258)"/>
<defs>
<linearGradient id="paint0_linear_64_258" x1="45.0999" y1="0.010009" x2="46.8608" y2="86.8091" gradientUnits="userSpaceOnUse">
<stop stop-color="#8844EE"/>
<stop offset="1" stop-color="#5025D1"/>
</linearGradient>
</defs>
</svg>
