<svg width="239" height="24" viewBox="0 0 239 24" fill="none" xmlns="http://www.w3.org/2000/svg">
<path d="M29.0937 17.9531C28 17.9531 27.099 17.7083 26.3906 17.2188C25.6927 16.7188 25.3437 16.0208 25.3437 15.125C25.3437 15.0313 25.3542 14.8906 25.375 14.7031H27.6094C27.5677 15.1406 27.6823 15.5 27.9531 15.7813C28.2344 16.0625 28.6406 16.2031 29.1719 16.2031C29.7031 16.2031 30.1198 16.0938 30.4219 15.875C30.7344 15.6458 30.8906 15.3229 30.8906 14.9063C30.8906 14.5208 30.7292 14.2135 30.4062 13.9844C30.0937 13.7552 29.599 13.5 28.9219 13.2188C28.2969 12.9583 27.7865 12.7188 27.3906 12.5C27.0052 12.2813 26.6719 11.9792 26.3906 11.5938C26.1198 11.1979 25.9844 10.7031 25.9844 10.1094C25.9844 9.43229 26.1562 8.84375 26.5 8.34375C26.8542 7.84375 27.3333 7.45833 27.9375 7.1875C28.5521 6.91667 29.25 6.78125 30.0312 6.78125C30.8021 6.78125 31.4687 6.91146 32.0312 7.17188C32.6042 7.42188 33.0312 7.78125 33.3125 8.25C33.6042 8.71875 33.7292 9.26563 33.6875 9.89063H31.3594L31.375 9.71875C31.375 9.375 31.2448 9.09375 30.9844 8.875C30.7344 8.65625 30.3802 8.54688 29.9219 8.54688C29.4323 8.54688 29.0365 8.66146 28.7344 8.89063C28.4323 9.11979 28.2812 9.43229 28.2812 9.82813C28.2812 10.0885 28.3646 10.3177 28.5312 10.5156C28.7083 10.7031 28.9219 10.8698 29.1719 11.0156C29.4219 11.151 29.7812 11.3281 30.25 11.5469C30.8646 11.8177 31.3698 12.0729 31.7656 12.3125C32.1614 12.5521 32.5 12.8698 32.7812 13.2656C33.0625 13.6615 33.2031 14.1458 33.2031 14.7188C33.2031 15.3438 33.0312 15.901 32.6875 16.3906C32.3542 16.8802 31.875 17.2656 31.25 17.5469C30.6354 17.8177 29.9167 17.9531 29.0937 17.9531ZM40.1461 9.04688C41.2503 9.04688 42.1253 9.35417 42.7711 9.96875C43.4169 10.5729 43.7399 11.3906 43.7399 12.4219C43.7399 12.7552 43.7138 13.0521 43.6617 13.3125C43.5992 13.625 43.5315 13.8958 43.4586 14.125H37.1305C37.1201 14.1979 37.1149 14.3021 37.1149 14.4375C37.1149 14.9792 37.2711 15.4063 37.5836 15.7188C37.9065 16.0208 38.3284 16.1719 38.8492 16.1719C39.2867 16.1719 39.6617 16.0781 39.9742 15.8906C40.2971 15.6927 40.5576 15.4375 40.7555 15.125H43.1149C42.7294 15.9583 42.1305 16.6458 41.318 17.1875C40.5159 17.7188 39.6044 17.9844 38.5836 17.9844C37.4794 17.9844 36.594 17.6719 35.9274 17.0469C35.2607 16.4219 34.9274 15.5729 34.9274 14.5C34.9274 14.1875 34.9586 13.8594 35.0211 13.5156C35.1774 12.6198 35.4951 11.8333 35.9742 11.1563C36.4638 10.4792 37.068 9.95833 37.7867 9.59375C38.5055 9.22917 39.2919 9.04688 40.1461 9.04688ZM41.4899 12.7969C41.5107 12.6302 41.5211 12.5104 41.5211 12.4375C41.5211 11.9375 41.3596 11.5469 41.0367 11.2656C40.7138 10.9844 40.2919 10.8438 39.7711 10.8438C39.219 10.8438 38.7242 11.0208 38.2867 11.375C37.8492 11.7188 37.5419 12.1927 37.3649 12.7969H41.4899ZM54.4615 9.1875L52.9303 17.8438H50.7428L50.9303 16.75C50.597 17.125 50.1855 17.4219 49.6959 17.6406C49.2063 17.849 48.6907 17.9531 48.149 17.9531C47.2532 17.9531 46.5449 17.7135 46.024 17.2344C45.5032 16.7448 45.2428 16.0521 45.2428 15.1563C45.2428 14.8229 45.2688 14.526 45.3209 14.2656L46.2115 9.1875H48.399L47.5553 13.9531C47.524 14.1406 47.5084 14.3229 47.5084 14.5C47.5084 15.0104 47.649 15.4063 47.9303 15.6875C48.2115 15.9583 48.6074 16.0938 49.1178 16.0938C49.7115 16.0938 50.2167 15.9115 50.6334 15.5469C51.0501 15.1719 51.3157 14.6406 51.4303 13.9531L52.274 9.1875H54.4615ZM63.2851 17.9844C62.6497 17.9844 62.0716 17.8802 61.5508 17.6719C61.0403 17.4531 60.6341 17.1563 60.332 16.7813C60.0403 16.3958 59.8945 15.9583 59.8945 15.4688C59.8945 15.3958 59.9049 15.276 59.9258 15.1094H62.0508C62.0195 15.474 62.1289 15.7708 62.3789 16C62.6289 16.2188 62.9831 16.3281 63.4414 16.3281C63.8581 16.3281 64.2018 16.2552 64.4726 16.1094C64.7539 15.9531 64.8945 15.7292 64.8945 15.4375C64.8945 15.1771 64.7643 14.9688 64.5039 14.8125C64.2539 14.6563 63.8528 14.4792 63.3008 14.2813C62.7487 14.0833 62.2903 13.8906 61.9258 13.7031C61.5612 13.5156 61.2487 13.2552 60.9883 12.9219C60.7278 12.5885 60.5976 12.1667 60.5976 11.6563C60.5976 11.1458 60.7435 10.6927 61.0351 10.2969C61.3372 9.90104 61.7539 9.59375 62.2851 9.375C62.8164 9.15625 63.4258 9.04688 64.1133 9.04688C64.7695 9.04688 65.3476 9.15625 65.8476 9.375C66.3476 9.59375 66.7331 9.90104 67.0039 10.2969C67.2851 10.6823 67.4258 11.125 67.4258 11.625C67.4258 11.75 67.4206 11.8438 67.4101 11.9063H65.3789C65.4101 11.5417 65.306 11.25 65.0664 11.0313C64.8268 10.8125 64.4778 10.7031 64.0195 10.7031C63.6445 10.7031 63.3372 10.7865 63.0976 10.9531C62.8581 11.1094 62.7383 11.3229 62.7383 11.5938C62.7383 11.8646 62.8737 12.0885 63.1445 12.2656C63.4153 12.4323 63.832 12.6198 64.3945 12.8281C64.957 13.0469 65.4049 13.25 65.7383 13.4375C66.082 13.6146 66.3789 13.8646 66.6289 14.1875C66.8789 14.5 67.0039 14.8958 67.0039 15.375C67.0039 15.9063 66.8424 16.3698 66.5195 16.7656C66.1966 17.1615 65.7539 17.4635 65.1914 17.6719C64.6289 17.8802 63.9935 17.9844 63.2851 17.9844ZM71.5495 8.15625C71.2058 8.15625 70.9298 8.05729 70.7214 7.85938C70.5131 7.66146 70.4089 7.41146 70.4089 7.10938C70.4089 6.69271 70.5652 6.33854 70.8777 6.04688C71.2006 5.74479 71.5756 5.59375 72.0027 5.59375C72.336 5.59375 72.6068 5.69271 72.8152 5.89063C73.0235 6.08854 73.1277 6.33854 73.1277 6.64063C73.1277 7.05729 72.9714 7.41667 72.6589 7.71875C72.3464 8.01042 71.9766 8.15625 71.5495 8.15625ZM72.4558 9.1875L70.9245 17.8438H68.7214L70.2527 9.1875H72.4558ZM76.4139 15.1719C76.4035 15.2344 76.3983 15.3177 76.3983 15.4219C76.3983 15.6302 76.4556 15.7813 76.5702 15.875C76.6952 15.9583 76.8983 16 77.1795 16H78.2108L77.8827 17.8438H76.492C74.9295 17.8438 74.1483 17.1927 74.1483 15.8906C74.1483 15.6406 74.1691 15.3958 74.2108 15.1563L74.9452 10.9844H73.9139L74.2264 9.1875H75.2733L75.6483 7.04688H77.8514L77.4764 9.1875H79.3983L79.0858 10.9844H77.1483L76.4139 15.1719ZM85.0967 9.04688C86.2008 9.04688 87.0758 9.35417 87.7217 9.96875C88.3675 10.5729 88.6904 11.3906 88.6904 12.4219C88.6904 12.7552 88.6644 13.0521 88.6123 13.3125C88.5498 13.625 88.4821 13.8958 88.4092 14.125H82.081C82.0706 14.1979 82.0654 14.3021 82.0654 14.4375C82.0654 14.9792 82.2217 15.4063 82.5342 15.7188C82.8571 16.0208 83.279 16.1719 83.7998 16.1719C84.2373 16.1719 84.6123 16.0781 84.9248 15.8906C85.2477 15.6927 85.5081 15.4375 85.706 15.125H88.0654C87.68 15.9583 87.081 16.6458 86.2685 17.1875C85.4665 17.7188 84.555 17.9844 83.5342 17.9844C82.43 17.9844 81.5446 17.6719 80.8779 17.0469C80.2112 16.4219 79.8779 15.5729 79.8779 14.5C79.8779 14.1875 79.9092 13.8594 79.9717 13.5156C80.1279 12.6198 80.4456 11.8333 80.9248 11.1563C81.4144 10.4792 82.0185 9.95833 82.7373 9.59375C83.456 9.22917 84.2425 9.04688 85.0967 9.04688ZM86.4404 12.7969C86.4612 12.6302 86.4717 12.5104 86.4717 12.4375C86.4717 11.9375 86.3102 11.5469 85.9873 11.2656C85.6644 10.9844 85.2425 10.8438 84.7217 10.8438C84.1696 10.8438 83.6748 11.0208 83.2373 11.375C82.7998 11.7188 82.4925 12.1927 82.3154 12.7969H86.4404ZM97.718 10.4375C98.0722 10.0417 98.5149 9.71354 99.0461 9.45313C99.5878 9.18229 100.176 9.04688 100.812 9.04688C101.458 9.04688 102.025 9.1875 102.515 9.46875C103.015 9.73958 103.4 10.1354 103.671 10.6563C103.942 11.1771 104.077 11.7865 104.077 12.4844C104.077 12.8073 104.046 13.1406 103.984 13.4844C103.827 14.3698 103.515 15.1563 103.046 15.8438C102.577 16.5208 102.01 17.0469 101.343 17.4219C100.676 17.7969 99.9784 17.9844 99.2492 17.9844C98.6138 17.9844 98.0722 17.8542 97.6242 17.5938C97.1867 17.3333 96.8534 17.0052 96.6242 16.6094L95.6867 21.9687H93.4836L95.7336 9.1875H97.9367L97.718 10.4375ZM101.749 13.4844C101.78 13.276 101.796 13.0885 101.796 12.9219C101.796 12.3073 101.619 11.8281 101.265 11.4844C100.911 11.1406 100.458 10.9688 99.9055 10.9688C99.5097 10.9688 99.119 11.0729 98.7336 11.2813C98.3482 11.4792 98.0149 11.7708 97.7336 12.1563C97.4524 12.5417 97.2649 12.9948 97.1711 13.5156C97.1295 13.7865 97.1086 13.9844 97.1086 14.1094C97.1086 14.724 97.2857 15.2031 97.6399 15.5469C98.0045 15.8906 98.4576 16.0625 98.9992 16.0625C99.4055 16.0625 99.8013 15.9583 100.187 15.75C100.572 15.5417 100.905 15.2448 101.187 14.8594C101.468 14.474 101.655 14.0156 101.749 13.4844ZM108.573 10.7188C108.948 10.1979 109.386 9.79167 109.886 9.5C110.386 9.20833 110.927 9.0625 111.511 9.0625L111.104 11.3594H110.526C109.881 11.3594 109.36 11.5 108.964 11.7813C108.578 12.0625 108.297 12.5417 108.12 13.2188L107.308 17.8438H105.104L106.636 9.1875H108.839L108.573 10.7188ZM115.609 17.9844C114.87 17.9844 114.213 17.8333 113.64 17.5313C113.078 17.2292 112.64 16.8021 112.328 16.25C112.015 15.6979 111.859 15.0625 111.859 14.3438C111.859 13.3646 112.088 12.474 112.547 11.6719C113.015 10.8594 113.651 10.2188 114.453 9.75C115.265 9.28125 116.166 9.04688 117.156 9.04688C117.896 9.04688 118.552 9.20313 119.125 9.51563C119.708 9.81771 120.156 10.2448 120.468 10.7969C120.791 11.349 120.953 11.9844 120.953 12.7031C120.953 13.6927 120.718 14.5885 120.25 15.3906C119.781 16.1927 119.135 16.8281 118.312 17.2969C117.5 17.7552 116.599 17.9844 115.609 17.9844ZM115.906 16.1094C116.427 16.1094 116.901 15.9583 117.328 15.6563C117.755 15.3542 118.088 14.9531 118.328 14.4531C118.567 13.9531 118.687 13.4271 118.687 12.875C118.687 12.25 118.51 11.7708 118.156 11.4375C117.812 11.0938 117.375 10.9219 116.843 10.9219C116.312 10.9219 115.838 11.0729 115.422 11.375C115.015 11.6771 114.698 12.0833 114.468 12.5938C114.239 13.0938 114.125 13.625 114.125 14.1875C114.125 14.8021 114.286 15.276 114.609 15.6094C114.942 15.9427 115.375 16.1094 115.906 16.1094ZM128.354 9.0625C129.25 9.0625 129.953 9.30729 130.464 9.79688C130.985 10.276 131.245 10.9635 131.245 11.8594C131.245 12.1927 131.219 12.4948 131.167 12.7656L130.261 17.8438H128.089L128.932 13.0625C128.964 12.875 128.979 12.6927 128.979 12.5156C128.979 11.9948 128.839 11.599 128.557 11.3281C128.287 11.0573 127.896 10.9219 127.386 10.9219C126.802 10.9219 126.302 11.099 125.886 11.4531C125.479 11.7969 125.209 12.2969 125.073 12.9531L124.214 17.8438H122.011L123.542 9.1875H125.745L125.557 10.25C125.912 9.88542 126.334 9.59896 126.823 9.39063C127.313 9.17188 127.823 9.0625 128.354 9.0625ZM135.685 15.1719C135.674 15.2344 135.669 15.3177 135.669 15.4219C135.669 15.6302 135.726 15.7813 135.841 15.875C135.966 15.9583 136.169 16 136.45 16H137.481L137.153 17.8438H135.763C134.2 17.8438 133.419 17.1927 133.419 15.8906C133.419 15.6406 133.44 15.3958 133.481 15.1563L134.216 10.9844H133.185L133.497 9.1875H134.544L134.919 7.04688H137.122L136.747 9.1875H138.669L138.356 10.9844H136.419L135.685 15.1719ZM142.899 17.9844C142.159 17.9844 141.503 17.8333 140.93 17.5313C140.367 17.2292 139.93 16.8021 139.617 16.25C139.305 15.6979 139.149 15.0625 139.149 14.3438C139.149 13.3646 139.378 12.474 139.836 11.6719C140.305 10.8594 140.94 10.2188 141.742 9.75C142.555 9.28125 143.456 9.04688 144.445 9.04688C145.185 9.04688 145.841 9.20313 146.414 9.51563C146.997 9.81771 147.445 10.2448 147.758 10.7969C148.081 11.349 148.242 11.9844 148.242 12.7031C148.242 13.6927 148.008 14.5885 147.539 15.3906C147.07 16.1927 146.425 16.8281 145.602 17.2969C144.789 17.7552 143.888 17.9844 142.899 17.9844ZM143.195 16.1094C143.716 16.1094 144.19 15.9583 144.617 15.6563C145.044 15.3542 145.378 14.9531 145.617 14.4531C145.857 13.9531 145.977 13.4271 145.977 12.875C145.977 12.25 145.8 11.7708 145.445 11.4375C145.102 11.0938 144.664 10.9219 144.133 10.9219C143.602 10.9219 143.128 11.0729 142.711 11.375C142.305 11.6771 141.987 12.0833 141.758 12.5938C141.529 13.0938 141.414 13.625 141.414 14.1875C141.414 14.8021 141.576 15.276 141.899 15.6094C142.232 15.9427 142.664 16.1094 143.195 16.1094ZM159.137 9.04688C160.241 9.04688 161.116 9.35417 161.762 9.96875C162.408 10.5729 162.731 11.3906 162.731 12.4219C162.731 12.7552 162.705 13.0521 162.653 13.3125C162.59 13.625 162.523 13.8958 162.45 14.125H156.122C156.111 14.1979 156.106 14.3021 156.106 14.4375C156.106 14.9792 156.262 15.4063 156.575 15.7188C156.898 16.0208 157.319 16.1719 157.84 16.1719C158.278 16.1719 158.653 16.0781 158.965 15.8906C159.288 15.6927 159.549 15.4375 159.747 15.125H162.106C161.721 15.9583 161.122 16.6458 160.309 17.1875C159.507 17.7188 158.596 17.9844 157.575 17.9844C156.471 17.9844 155.585 17.6719 154.918 17.0469C154.252 16.4219 153.918 15.5729 153.918 14.5C153.918 14.1875 153.95 13.8594 154.012 13.5156C154.168 12.6198 154.486 11.8333 154.965 11.1563C155.455 10.4792 156.059 9.95833 156.778 9.59375C157.497 9.22917 158.283 9.04688 159.137 9.04688ZM160.481 12.7969C160.502 12.6302 160.512 12.5104 160.512 12.4375C160.512 11.9375 160.351 11.5469 160.028 11.2656C159.705 10.9844 159.283 10.8438 158.762 10.8438C158.21 10.8438 157.715 11.0208 157.278 11.375C156.84 11.7188 156.533 12.1927 156.356 12.7969H160.481ZM176.062 9.0625C176.979 9.0625 177.703 9.30729 178.234 9.79688C178.765 10.2865 179.031 10.9792 179.031 11.875C179.031 12.2083 179.005 12.5052 178.953 12.7656L178.046 17.8438H175.874L176.718 13.0625C176.749 12.875 176.765 12.6927 176.765 12.5156C176.765 12.0156 176.624 11.6354 176.343 11.375C176.072 11.1042 175.682 10.9688 175.171 10.9688C174.567 10.9688 174.057 11.151 173.64 11.5156C173.223 11.8698 172.963 12.3854 172.859 13.0625V13.0469L171.999 17.8438H169.828L170.671 13.0625C170.703 12.875 170.718 12.6979 170.718 12.5313C170.718 12.0208 170.578 11.6354 170.296 11.375C170.015 11.1042 169.619 10.9688 169.109 10.9688C168.536 10.9688 168.041 11.1406 167.624 11.4844C167.218 11.8177 166.953 12.2969 166.828 12.9219L165.953 17.8438H163.749L165.281 9.1875H167.484L167.296 10.2188C167.64 9.86458 168.052 9.58333 168.531 9.375C169.01 9.16667 169.515 9.0625 170.046 9.0625C170.723 9.0625 171.302 9.20833 171.781 9.5C172.26 9.78125 172.598 10.1875 172.796 10.7188C173.161 10.2188 173.635 9.81771 174.218 9.51563C174.812 9.21354 175.427 9.0625 176.062 9.0625ZM235.348 17.9531C235.005 17.9531 234.729 17.8542 234.52 17.6563C234.312 17.4583 234.208 17.2083 234.208 16.9063C234.208 16.4896 234.364 16.1354 234.676 15.8438C234.999 15.5417 235.374 15.3906 235.801 15.3906C236.145 15.3906 236.416 15.4896 236.614 15.6875C236.822 15.875 236.926 16.125 236.926 16.4375C236.926 16.8542 236.77 17.2135 236.458 17.5156C236.145 17.8073 235.775 17.9531 235.348 17.9531Z" fill="#A98CFF"/>
<path d="M185.975 10C186.225 8.76042 186.751 7.8125 187.553 7.15625C188.366 6.5 189.407 6.17188 190.678 6.17188C191.761 6.17188 192.59 6.41146 193.162 6.89063C193.746 7.36979 194.037 8 194.037 8.78125C194.037 8.95833 194.022 9.15104 193.991 9.35938C193.866 10.0885 193.595 10.6615 193.178 11.0781C192.761 11.4948 192.324 11.7708 191.866 11.9063V11.9688C192.834 12.3542 193.319 13.0313 193.319 14C193.319 14.1771 193.303 14.3698 193.272 14.5781C193.095 15.599 192.605 16.4167 191.803 17.0313C191.001 17.6458 190.006 17.9531 188.819 17.9531C187.631 17.9531 186.709 17.7083 186.053 17.2188C185.397 16.7188 185.069 15.9375 185.069 14.875C185.069 14.625 185.095 14.3177 185.147 13.9531H188.522C188.48 14.1198 188.459 14.2813 188.459 14.4375C188.459 14.875 188.694 15.0938 189.162 15.0938C189.381 15.0938 189.569 15.0052 189.725 14.8281C189.892 14.6406 189.975 14.4063 189.975 14.125C189.975 13.8958 189.886 13.724 189.709 13.6094C189.532 13.4948 189.246 13.4375 188.85 13.4375H188.272L188.772 10.6406H189.334C190.032 10.6823 190.433 10.401 190.537 9.79688C190.548 9.74479 190.553 9.66667 190.553 9.5625C190.553 9.20833 190.402 9.03125 190.1 9.03125C189.871 9.03125 189.699 9.11979 189.584 9.29688C189.48 9.47396 189.402 9.70833 189.35 10H185.975ZM197.868 13.4375C198.035 12.5104 198.337 11.7083 198.774 11.0313C199.212 10.3438 199.738 9.82292 200.352 9.46875C200.967 9.10417 201.618 8.92188 202.306 8.92188C202.878 8.92188 203.347 9.04167 203.712 9.28125C204.087 9.51042 204.347 9.82813 204.493 10.2344L205.196 6.28125H208.665L206.618 17.8438H203.149L203.368 16.6406C203.076 17.0469 202.701 17.3698 202.243 17.6094C201.795 17.8385 201.285 17.9531 200.712 17.9531C199.826 17.9531 199.113 17.6563 198.571 17.0625C198.029 16.4688 197.759 15.6458 197.759 14.5938C197.759 14.1979 197.795 13.8125 197.868 13.4375ZM203.946 13.4375C203.967 13.3438 203.977 13.2188 203.977 13.0625C203.977 12.7083 203.884 12.4375 203.696 12.25C203.509 12.0521 203.253 11.9531 202.931 11.9531C202.556 11.9531 202.222 12.0833 201.931 12.3438C201.649 12.6042 201.467 12.9688 201.384 13.4375C201.363 13.5313 201.352 13.6563 201.352 13.8125C201.352 14.1667 201.446 14.4427 201.634 14.6406C201.821 14.8281 202.076 14.9219 202.399 14.9219C202.774 14.9219 203.102 14.7917 203.384 14.5313C203.675 14.2708 203.863 13.9063 203.946 13.4375ZM211.926 8.32813C211.384 8.32813 210.957 8.19792 210.644 7.9375C210.342 7.67708 210.191 7.33854 210.191 6.92188C210.191 6.55729 210.29 6.21875 210.488 5.90625C210.686 5.59375 210.962 5.34896 211.316 5.17188C211.681 4.98438 212.082 4.89063 212.519 4.89063C213.051 4.89063 213.467 5.02604 213.769 5.29688C214.082 5.55729 214.238 5.90104 214.238 6.32813C214.238 6.69271 214.139 7.02604 213.941 7.32813C213.743 7.63021 213.467 7.875 213.113 8.0625C212.759 8.23958 212.363 8.32813 211.926 8.32813ZM213.519 9.03125L211.957 17.8438H208.488L210.051 9.03125H213.519ZM214.149 13.4375C214.315 12.5104 214.617 11.7083 215.055 11.0313C215.492 10.3438 216.018 9.82292 216.633 9.46875C217.247 9.10417 217.899 8.92188 218.586 8.92188C219.159 8.92188 219.633 9.04167 220.008 9.28125C220.383 9.51042 220.643 9.82813 220.789 10.2344L221.008 9.03125H224.461L222.899 17.8438H219.445L219.664 16.6406C219.372 17.0469 218.997 17.3698 218.539 17.6094C218.081 17.8385 217.565 17.9531 216.992 17.9531C216.107 17.9531 215.393 17.6563 214.852 17.0625C214.31 16.4688 214.039 15.6458 214.039 14.5938C214.039 14.1979 214.076 13.8125 214.149 13.4375ZM220.227 13.4375C220.247 13.3438 220.258 13.2188 220.258 13.0625C220.258 12.7083 220.164 12.4375 219.977 12.25C219.789 12.0521 219.534 11.9531 219.211 11.9531C218.836 11.9531 218.503 12.0833 218.211 12.3438C217.93 12.6042 217.747 12.9688 217.664 13.4375C217.643 13.5313 217.633 13.6563 217.633 13.8125C217.633 14.1667 217.727 14.4427 217.914 14.6406C218.102 14.8281 218.357 14.9219 218.68 14.9219C219.055 14.9219 219.383 14.7917 219.664 14.5313C219.956 14.2708 220.143 13.9063 220.227 13.4375ZM228.8 17.9531C228.029 17.9531 227.342 17.8385 226.737 17.6094C226.144 17.3802 225.675 17.0625 225.331 16.6563C224.998 16.2396 224.831 15.7656 224.831 15.2344C224.831 15.0365 224.842 14.8906 224.862 14.7969H228.19C228.18 15.0573 228.253 15.25 228.409 15.375C228.576 15.5 228.8 15.5625 229.081 15.5625C229.258 15.5625 229.409 15.5208 229.534 15.4375C229.67 15.3542 229.737 15.2552 229.737 15.1406C229.737 14.974 229.633 14.8438 229.425 14.75C229.217 14.6458 228.873 14.5313 228.394 14.4063C227.789 14.2396 227.284 14.0677 226.878 13.8906C226.482 13.7135 226.133 13.4531 225.831 13.1094C225.539 12.7552 225.394 12.2969 225.394 11.7344C225.394 11.2135 225.55 10.7396 225.862 10.3125C226.185 9.875 226.633 9.53646 227.206 9.29688C227.789 9.04688 228.461 8.92188 229.222 8.92188C230.055 8.92188 230.769 9.0625 231.362 9.34375C231.967 9.625 232.42 10.0052 232.722 10.4844C233.024 10.9635 233.164 11.4948 233.144 12.0781H230.065C230.065 11.8385 229.993 11.6563 229.847 11.5313C229.701 11.3958 229.487 11.3281 229.206 11.3281C229.029 11.3281 228.878 11.3646 228.753 11.4375C228.638 11.5104 228.581 11.6094 228.581 11.7344C228.581 11.8906 228.685 12.0208 228.894 12.125C229.102 12.2188 229.456 12.3438 229.956 12.5C230.571 12.6771 231.076 12.8542 231.472 13.0313C231.878 13.1979 232.232 13.4531 232.534 13.7969C232.836 14.1302 232.987 14.5573 232.987 15.0781C232.987 15.9844 232.597 16.6927 231.815 17.2031C231.045 17.7031 230.039 17.9531 228.8 17.9531Z" fill="#815AF5"/>
<path fill-rule="evenodd" clip-rule="evenodd" d="M0.46875 13.8885L8.26587 13.9149L5.31882 23.5358L17.7281 8.95913L10.05 8.90627L14.6621 0.606965L5.14702 0.59375L0.46875 13.8885Z" fill="#815AF5"/>
</svg>
